<svg xmlns="http://www.w3.org/2000/svg" xmlns:xlink="http://www.w3.org/1999/xlink" width="80" height="80" viewBox="0 0 80 80"><rect width="100%" height="100%" fill="#DDDDDD"/><path d="M18.85 44.09L18.85 44.09Q19.31 44.09 19.65 43.96Q20.00 43.83 20.23 43.60Q20.47 43.37 20.59 43.05Q20.71 42.72 20.71 42.35L20.71 42.35Q20.71 41.45 20.21 41.00Q19.72 40.54 18.85 40.54L18.85 40.54Q17.98 40.54 17.48 41.00Q16.99 41.45 16.99 42.35L16.99 42.35Q16.99 42.72 17.11 43.05Q17.23 43.37 17.47 43.60Q17.70 43.83 18.05 43.96Q18.39 44.09 18.85 44.09ZM18.85 35.85L18.85 35.85Q18.44 35.85 18.14 35.98Q17.84 36.11 17.64 36.32Q17.44 36.53 17.35 36.81Q17.25 37.09 17.25 37.40L17.25 37.40Q17.25 37.72 17.33 38.02Q17.41 38.33 17.60 38.56Q17.78 38.80 18.09 38.94Q18.40 39.09 18.85 39.09L18.85 39.09Q19.30 39.09 19.61 38.94Q19.91 38.80 20.10 38.56Q20.29 38.33 20.37 38.02Q20.45 37.72 20.45 37.40L20.45 37.40Q20.45 37.09 20.35 36.81Q20.25 36.53 20.06 36.32Q19.86 36.11 19.56 35.98Q19.26 35.85 18.85 35.85ZM20.68 39.77L20.68 39.77Q21.67 40.09 22.14 40.75Q22.61 41.42 22.61 42.38L22.61 42.38Q22.61 43.10 22.34 43.68Q22.07 44.27 21.57 44.68Q21.08 45.09 20.38 45.32Q19.69 45.54 18.85 45.54L18.85 45.54Q18.01 45.54 17.32 45.32Q16.62 45.09 16.13 44.68Q15.63 44.27 15.36 43.68Q15.08 43.10 15.08 42.38L15.08 42.38Q15.08 41.42 15.56 40.75Q16.03 40.09 17.02 39.77L17.02 39.77Q16.23 39.44 15.84 38.83Q15.44 38.22 15.44 37.37L15.44 37.37Q15.44 36.75 15.70 36.22Q15.95 35.69 16.40 35.29Q16.85 34.90 17.47 34.68Q18.10 34.46 18.85 34.46L18.85 34.46Q19.60 34.46 20.23 34.68Q20.85 34.90 21.30 35.29Q21.75 35.69 22.00 36.22Q22.25 36.75 22.25 37.37L22.25 37.37Q22.25 38.22 21.86 38.83Q21.47 39.44 20.68 39.77ZM31.52 40L31.52 40Q31.52 41.42 31.22 42.46Q30.92 43.51 30.38 44.19Q29.84 44.88 29.11 45.21Q28.38 45.54 27.53 45.54L27.53 45.54Q26.69 45.54 25.96 45.21Q25.24 44.88 24.71 44.19Q24.17 43.51 23.87 42.46Q23.57 41.42 23.57 40L23.57 40Q23.57 38.58 23.87 37.53Q24.17 36.49 24.71 35.81Q25.24 35.13 25.96 34.79Q26.69 34.46 27.53 34.46L27.53 34.46Q28.38 34.46 29.11 34.79Q29.84 35.13 30.38 35.81Q30.92 36.49 31.22 37.53Q31.52 38.58 31.52 40ZM29.61 40L29.61 40Q29.61 38.82 29.44 38.05Q29.27 37.28 28.98 36.82Q28.69 36.36 28.31 36.18Q27.94 35.99 27.53 35.99L27.53 35.99Q27.14 35.99 26.77 36.18Q26.39 36.36 26.11 36.82Q25.82 37.28 25.66 38.05Q25.49 38.82 25.49 40L25.49 40Q25.49 41.18 25.66 41.95Q25.82 42.72 26.11 43.18Q26.39 43.64 26.77 43.82Q27.14 44.01 27.53 44.01L27.53 44.01Q27.94 44.01 28.31 43.82Q28.69 43.64 28.98 43.18Q29.27 42.72 29.44 41.95Q29.61 41.18 29.61 40ZM43.43 42.94L42.45 43.91L39.91 41.37L37.34 43.92L36.36 42.95L38.93 40.38L36.48 37.94L37.46 36.96L39.90 39.41L42.33 36.98L43.32 37.95L40.88 40.39L43.43 42.94ZM52.24 44.09L52.24 44.09Q52.70 44.09 53.04 43.96Q53.39 43.83 53.62 43.60Q53.86 43.37 53.98 43.05Q54.10 42.72 54.10 42.35L54.10 42.35Q54.10 41.45 53.60 41.00Q53.11 40.54 52.24 40.54L52.24 40.54Q51.37 40.54 50.87 41.00Q50.38 41.45 50.38 42.35L50.38 42.35Q50.38 42.72 50.50 43.05Q50.62 43.37 50.86 43.60Q51.09 43.83 51.44 43.96Q51.78 44.09 52.24 44.09ZM52.24 35.85L52.24 35.85Q51.83 35.85 51.53 35.98Q51.23 36.11 51.03 36.32Q50.83 36.53 50.74 36.81Q50.64 37.09 50.64 37.40L50.64 37.40Q50.64 37.72 50.72 38.02Q50.80 38.33 50.99 38.56Q51.17 38.80 51.48 38.94Q51.79 39.09 52.24 39.09L52.24 39.09Q52.69 39.09 53.00 38.94Q53.30 38.80 53.49 38.56Q53.68 38.33 53.76 38.02Q53.84 37.72 53.84 37.40L53.84 37.40Q53.84 37.09 53.74 36.81Q53.64 36.53 53.45 36.32Q53.25 36.11 52.95 35.98Q52.65 35.85 52.24 35.85ZM54.07 39.77L54.07 39.77Q55.06 40.09 55.53 40.75Q56.00 41.42 56.00 42.38L56.00 42.38Q56.00 43.10 55.73 43.68Q55.46 44.27 54.96 44.68Q54.47 45.09 53.77 45.32Q53.08 45.54 52.24 45.54L52.24 45.54Q51.40 45.54 50.71 45.32Q50.01 45.09 49.52 44.68Q49.02 44.27 48.75 43.68Q48.47 43.10 48.47 42.38L48.47 42.38Q48.47 41.42 48.95 40.75Q49.42 40.09 50.41 39.77L50.41 39.77Q49.62 39.44 49.23 38.83Q48.83 38.22 48.83 37.37L48.83 37.37Q48.83 36.75 49.09 36.22Q49.34 35.69 49.79 35.29Q50.24 34.90 50.86 34.68Q51.49 34.46 52.24 34.46L52.24 34.46Q52.99 34.46 53.62 34.68Q54.24 34.90 54.69 35.29Q55.14 35.69 55.39 36.22Q55.64 36.75 55.64 37.37L55.64 37.37Q55.64 38.22 55.25 38.83Q54.86 39.44 54.07 39.77ZM64.91 40L64.91 40Q64.91 41.42 64.61 42.46Q64.31 43.51 63.77 44.19Q63.23 44.88 62.50 45.21Q61.77 45.54 60.92 45.54L60.92 45.54Q60.08 45.54 59.35 45.21Q58.63 44.88 58.10 44.19Q57.56 43.51 57.26 42.46Q56.96 41.42 56.96 40L56.96 40Q56.96 38.58 57.26 37.53Q57.56 36.49 58.10 35.81Q58.63 35.13 59.35 34.79Q60.08 34.46 60.92 34.46L60.92 34.46Q61.77 34.46 62.50 34.79Q63.23 35.13 63.77 35.81Q64.31 36.49 64.61 37.53Q64.91 38.58 64.91 40ZM63.00 40L63.00 40Q63.00 38.82 62.83 38.05Q62.66 37.28 62.37 36.82Q62.08 36.36 61.70 36.18Q61.33 35.99 60.92 35.99L60.92 35.99Q60.53 35.99 60.16 36.18Q59.78 36.36 59.50 36.82Q59.21 37.28 59.05 38.05Q58.88 38.82 58.88 40L58.88 40Q58.88 41.18 59.05 41.95Q59.21 42.72 59.50 43.18Q59.78 43.64 60.16 43.82Q60.53 44.01 60.92 44.01L60.92 44.01Q61.33 44.01 61.70 43.82Q62.08 43.64 62.37 43.18Q62.66 42.72 62.83 41.95Q63.00 41.18 63.00 40Z" fill="#999999"/></svg>