<svg xmlns="http://www.w3.org/2000/svg" xmlns:xlink="http://www.w3.org/1999/xlink" width="1000" height="400" viewBox="0 0 1000 400"><rect width="100%" height="100%" fill="#DDDDDD"/><path d="M234.31 232.55L250.04 232.55L250.04 243.74L201.64 243.74L201.64 232.55L219.37 232.55L219.37 181.55Q219.37 178.52 219.55 175.32L219.55 175.32L206.97 185.84Q205.88 186.69 204.82 186.90Q203.76 187.11 202.82 186.93Q201.89 186.75 201.16 186.30Q200.43 185.84 200.07 185.30L200.07 185.30L195.35 178.82L222.03 156.14L234.31 156.14L234.31 232.55ZM324.76 200L324.76 200Q324.76 211.43 322.31 219.87Q319.86 228.31 315.54 233.82Q311.21 239.32 305.31 242.02Q299.41 244.71 292.58 244.71L292.58 244.71Q285.74 244.71 279.90 242.02Q274.06 239.32 269.77 233.82Q265.47 228.31 263.05 219.87Q260.63 211.43 260.63 200L260.63 200Q260.63 188.50 263.05 180.10Q265.47 171.69 269.77 166.18Q274.06 160.68 279.90 157.98Q285.74 155.29 292.58 155.29L292.58 155.29Q299.41 155.29 305.31 157.98Q311.21 160.68 315.54 166.18Q319.86 171.69 322.31 180.10Q324.76 188.50 324.76 200ZM309.33 200L309.33 200Q309.33 190.50 307.94 184.27Q306.55 178.04 304.22 174.35Q301.89 170.66 298.87 169.18Q295.84 167.69 292.58 167.69L292.58 167.69Q289.37 167.69 286.37 169.18Q283.38 170.66 281.08 174.35Q278.78 178.04 277.42 184.27Q276.06 190.50 276.06 200L276.06 200Q276.06 209.50 277.42 215.73Q278.78 221.96 281.08 225.65Q283.38 229.34 286.37 230.82Q289.37 232.31 292.58 232.31L292.58 232.31Q295.84 232.31 298.87 230.82Q301.89 229.34 304.22 225.65Q306.55 221.96 307.94 215.73Q309.33 209.50 309.33 200ZM394.94 200L394.94 200Q394.94 211.43 392.49 219.87Q390.04 228.31 385.72 233.82Q381.39 239.32 375.49 242.02Q369.59 244.71 362.76 244.71L362.76 244.71Q355.92 244.71 350.08 242.02Q344.24 239.32 339.95 233.82Q335.65 228.31 333.23 219.87Q330.81 211.43 330.81 200L330.81 200Q330.81 188.50 333.23 180.10Q335.65 171.69 339.95 166.18Q344.24 160.68 350.08 157.98Q355.92 155.29 362.76 155.29L362.76 155.29Q369.59 155.29 375.49 157.98Q381.39 160.68 385.72 166.18Q390.04 171.69 392.49 180.10Q394.94 188.50 394.94 200ZM379.51 200L379.51 200Q379.51 190.50 378.12 184.27Q376.73 178.04 374.40 174.35Q372.07 170.66 369.05 169.18Q366.02 167.69 362.76 167.69L362.76 167.69Q359.55 167.69 356.55 169.18Q353.56 170.66 351.26 174.35Q348.96 178.04 347.60 184.27Q346.24 190.50 346.24 200L346.24 200Q346.24 209.50 347.60 215.73Q348.96 221.96 351.26 225.65Q353.56 229.34 356.55 230.82Q359.55 232.31 362.76 232.31L362.76 232.31Q366.02 232.31 369.05 230.82Q372.07 229.34 374.40 225.65Q376.73 221.96 378.12 215.73Q379.51 209.50 379.51 200ZM465.12 200L465.12 200Q465.12 211.43 462.67 219.87Q460.22 228.31 455.90 233.82Q451.57 239.32 445.67 242.02Q439.77 244.71 432.94 244.71L432.94 244.71Q426.10 244.71 420.26 242.02Q414.42 239.32 410.13 233.82Q405.83 228.31 403.41 219.87Q400.99 211.43 400.99 200L400.99 200Q400.99 188.50 403.41 180.10Q405.83 171.69 410.13 166.18Q414.42 160.68 420.26 157.98Q426.10 155.29 432.94 155.29L432.94 155.29Q439.77 155.29 445.67 157.98Q451.57 160.68 455.90 166.18Q460.22 171.69 462.67 180.10Q465.12 188.50 465.12 200ZM449.69 200L449.69 200Q449.69 190.50 448.30 184.27Q446.91 178.04 444.58 174.35Q442.25 170.66 439.23 169.18Q436.20 167.69 432.94 167.69L432.94 167.69Q429.73 167.69 426.73 169.18Q423.74 170.66 421.44 174.35Q419.14 178.04 417.78 184.27Q416.42 190.50 416.42 200L416.42 200Q416.42 209.50 417.78 215.73Q419.14 221.96 421.44 225.65Q423.74 229.34 426.73 230.82Q429.73 232.31 432.94 232.31L432.94 232.31Q436.20 232.31 439.23 230.82Q442.25 229.34 444.58 225.65Q446.91 221.96 448.30 215.73Q449.69 209.50 449.69 200ZM561.20 223.72L553.27 231.52L532.76 211.01L512.07 231.64L504.14 223.84L524.84 203.09L505.11 183.36L512.98 175.50L532.70 195.22L552.30 175.62L560.29 183.48L540.63 203.15L561.20 223.72ZM613.59 210.77L640.21 210.77L640.21 182.15Q640.21 178.10 640.75 173.20L640.75 173.20L613.59 210.77ZM653.22 210.77L664.23 210.77L664.23 219.42Q664.23 220.63 663.44 221.51Q662.65 222.38 661.20 222.38L661.20 222.38L653.22 222.38L653.22 243.74L640.21 243.74L640.21 222.38L603.30 222.38Q601.79 222.38 600.64 221.45Q599.49 220.51 599.19 219.12L599.19 219.12L597.62 211.56L639.06 156.20L653.22 156.20L653.22 210.77ZM734.47 200L734.47 200Q734.47 211.43 732.02 219.87Q729.57 228.31 725.24 233.82Q720.92 239.32 715.02 242.02Q709.12 244.71 702.28 244.71L702.28 244.71Q695.45 244.71 689.61 242.02Q683.77 239.32 679.47 233.82Q675.18 228.31 672.76 219.87Q670.34 211.43 670.34 200L670.34 200Q670.34 188.50 672.76 180.10Q675.18 171.69 679.47 166.18Q683.77 160.68 689.61 157.98Q695.45 155.29 702.28 155.29L702.28 155.29Q709.12 155.29 715.02 157.98Q720.92 160.68 725.24 166.18Q729.57 171.69 732.02 180.10Q734.47 188.50 734.47 200ZM719.04 200L719.04 200Q719.04 190.50 717.65 184.27Q716.26 178.04 713.93 174.35Q711.60 170.66 708.57 169.18Q705.55 167.69 702.28 167.69L702.28 167.69Q699.08 167.69 696.08 169.18Q693.09 170.66 690.79 174.35Q688.49 178.04 687.13 184.27Q685.77 190.50 685.77 200L685.77 200Q685.77 209.50 687.13 215.73Q688.49 221.96 690.79 225.65Q693.09 229.34 696.08 230.82Q699.08 232.31 702.28 232.31L702.28 232.31Q705.55 232.31 708.57 230.82Q711.60 229.34 713.93 225.65Q716.26 221.96 717.65 215.73Q719.04 209.50 719.04 200ZM804.65 200L804.65 200Q804.65 211.43 802.20 219.87Q799.75 228.31 795.42 233.82Q791.10 239.32 785.20 242.02Q779.30 244.71 772.46 244.71L772.46 244.71Q765.63 244.71 759.79 242.02Q753.95 239.32 749.65 233.82Q745.36 228.31 742.94 219.87Q740.52 211.43 740.52 200L740.52 200Q740.52 188.50 742.94 180.10Q745.36 171.69 749.65 166.18Q753.95 160.68 759.79 157.98Q765.63 155.29 772.46 155.29L772.46 155.29Q779.30 155.29 785.20 157.98Q791.10 160.68 795.42 166.18Q799.75 171.69 802.20 180.10Q804.65 188.50 804.65 200ZM789.22 200L789.22 200Q789.22 190.50 787.83 184.27Q786.44 178.04 784.11 174.35Q781.78 170.66 778.75 169.18Q775.73 167.69 772.46 167.69L772.46 167.69Q769.26 167.69 766.26 169.18Q763.27 170.66 760.97 174.35Q758.67 178.04 757.31 184.27Q755.95 190.50 755.95 200L755.95 200Q755.95 209.50 757.31 215.73Q758.67 221.96 760.97 225.65Q763.27 229.34 766.26 230.82Q769.26 232.31 772.46 232.31L772.46 232.31Q775.73 232.31 778.75 230.82Q781.78 229.34 784.11 225.65Q786.44 221.96 787.83 215.73Q789.22 209.50 789.22 200Z" fill="#999999"/></svg>